<svg xmlns="http://www.w3.org/2000/svg" version="1.1" xmlns:xlink="http://www.w3.org/1999/xlink" xmlns:svgjs="http://svgjs.dev/svgjs" width="1500" height="500" preserveAspectRatio="none" viewBox="0 0 1500 500"><g mask="url(&quot;#SvgjsMask2092&quot;)" fill="none"><rect width="1500" height="500" x="0" y="0" fill="rgba(98, 239, 235, 1)"></rect><path d="M43 500L543 0L1003.5 0L503.5 500z" fill="url(&quot;#SvgjsLinearGradient2093&quot;)"></path><path d="M368 500L868 0L1276 0L776 500z" fill="url(&quot;#SvgjsLinearGradient2093&quot;)"></path><path d="M661 500L1161 0L1633.5 0L1133.5 500z" fill="url(&quot;#SvgjsLinearGradient2093&quot;)"></path><path d="M1445 500L945 0L693 0L1193 500z" fill="url(&quot;#SvgjsLinearGradient2094&quot;)"></path><path d="M1141 500L641 0L408.5 0L908.5 500z" fill="url(&quot;#SvgjsLinearGradient2094&quot;)"></path><path d="M777 500L277 0L97 0L597 500z" fill="url(&quot;#SvgjsLinearGradient2094&quot;)"></path><path d="M1149.298552561321 500L1500 149.29855256132106L1500 500z" fill="url(&quot;#SvgjsLinearGradient2093&quot;)"></path><path d="M0 500L350.70144743867894 500L 0 149.29855256132106z" fill="url(&quot;#SvgjsLinearGradient2094&quot;)"></path></g><defs><mask id="SvgjsMask2092"><rect width="1500" height="500" fill="#ffffff"></rect></mask><linearGradient x1="0%" y1="100%" x2="100%" y2="0%" id="SvgjsLinearGradient2093"><stop stop-color="rgba(244, 244, 244, 0.95)" offset="0"></stop><stop stop-opacity="0" stop-color="rgba(244, 244, 244, 0.95)" offset="0.66"></stop></linearGradient><linearGradient x1="100%" y1="100%" x2="0%" y2="0%" id="SvgjsLinearGradient2094"><stop stop-color="rgba(244, 244, 244, 0.95)" offset="0"></stop><stop stop-opacity="0" stop-color="rgba(244, 244, 244, 0.95)" offset="0.66"></stop></linearGradient></defs></svg>